<svg xmlns="http://www.w3.org/2000/svg" width="40" height="40" fill="none">
  <symbol id="floppy">
  <path fill="#000" d="M1 1h3v3H1zM1 4h3v3H1zM1 7h3v3H1zM1 10h3v3H1zM1 13h3v3H1zM1 16h3v3H1zM1 19h3v3H1zM1 22h3v3H1zM1 25h3v3H1zM1 28h3v3H1zM1 31h3v3H1zM1 34h3v3H1zM1 37h3v3H1zM33 1v3h-3V1zM30 1v3h-3V1zM27 1v3h-3V1zM24 1v3h-3V1zM21 1v3h-3V1zM18 1v3h-3V1zM15 1v3h-3V1zM12 1v3H9V1zM9 1v3H6V1z"/><path fill="#000" d="M6 1v3H3V1zM36 4v3h-3V4zM9 7v3H6V7zM9 4v3H6V4zM9 10v3H6v-3zM30 7v3h-3V7zM30 4v3h-3V4zM30 10v3h-3v-3zM24 7v3h-3V7zM24 4v3h-3V4zM24 10v3h-3v-3zM30 13v3h-3v-3zM27 13v3h-3v-3zM24 13v3h-3v-3zM21 13v3h-3v-3zM18 13v3h-3v-3zM15 13v3h-3v-3zM12 13v3H9v-3zM9 13v3H6v-3zM33 22v3h-3v-3zM30 22v3h-3v-3zM27 22v3h-3v-3zM24 22v3h-3v-3zM21 22v3h-3v-3zM18 22v3h-3v-3zM15 22v3h-3v-3zM12 22v3H9v-3zM9 22v3H6v-3zM33 25v3h-3v-3zM9 25v3H6v-3zM33 28v3h-3v-3zM9 28v3H6v-3zM33 31v3h-3v-3zM9 31v3H6v-3zM9 34v3H6v-3zM33 34v3h-3v-3zM36 37v3h-3v-3zM33 37v3h-3v-3zM30 37v3h-3v-3zM27 37v3h-3v-3zM24 37v3h-3v-3zM21 37v3h-3v-3zM18 37v3h-3v-3zM15 37v3h-3v-3zM12 37v3H9v-3zM9 37v3H6v-3zM6 37v3H3v-3zM39 39h-3v-3h3zM39 36h-3v-3h3zM39 33h-3v-3h3zM39 30h-3v-3h3zM39 27h-3v-3h3zM39 24h-3v-3h3zM39 21h-3v-3h3zM39 18h-3v-3h3zM39 15h-3v-3h3zM39 12h-3V9h3zM39 9h-3V6h3z"/>
  </symbol>
</svg>